<?xml version="1.0" standalone="no"?>
<!DOCTYPE svg PUBLIC "-//W3C//DTD SVG 20010904//EN"
 "http://www.w3.org/TR/2001/REC-SVG-20010904/DTD/svg10.dtd">
<svg version="1.0" xmlns="http://www.w3.org/2000/svg"
 width="512.000000pt" height="512.000000pt" viewBox="0 0 512.000000 512.000000"
 preserveAspectRatio="xMidYMid meet">
<metadata>
Created by potrace 1.14, written by Peter Selinger 2001-2017
</metadata>
<g transform="translate(0.000000,512.000000) scale(0.100000,-0.100000)"
fill="#000000" stroke="none">
<path d="M2545 5062 c-11 -2 -112 -34 -225 -72 -113 -37 -567 -188 -1010 -334
-443 -147 -815 -274 -826 -281 -12 -8 -32 -31 -45 -52 l-24 -38 1 -1170 c0
-1034 3 -1223 18 -1301 22 -108 73 -248 129 -354 33 -62 127 -206 154 -236 10
-10 34 -39 54 -64 47 -58 168 -180 248 -250 35 -30 69 -60 75 -66 36 -34 211
-161 331 -240 234 -153 522 -307 785 -419 74 -31 149 -63 165 -70 84 -36 183
-64 210 -59 112 19 606 244 870 396 173 100 489 306 515 337 3 3 39 33 80 66
41 33 127 112 191 175 278 278 417 522 475 835 4 22 8 567 9 1210 2 1079 1
1173 -15 1210 -37 88 0 73 -1096 438 -555 184 -1018 337 -1029 339 -11 2 -29
2 -40 0z m1265 -740 c518 -172 575 -193 580 -214 9 -35 4 -2145 -4 -2208 -53
-385 -440 -802 -1079 -1163 -240 -135 -695 -347 -746 -347 -18 0 -53 13 -136
50 -22 10 -65 28 -95 41 -30 12 -140 66 -245 119 -682 346 -1136 742 -1289
1124 -60 150 -59 110 -60 1307 l-1 1096 913 305 914 304 336 -112 c185 -61
596 -197 912 -302z"/>
<path d="M2399 4379 c-366 -62 -659 -334 -749 -697 -24 -95 -28 -139 -29 -314
l-1 -138 -170 0 -170 0 2 -947 3 -948 1278 -1 1277 -1 0 949 0 948 -170 0
-170 0 -1 148 c0 81 -2 154 -3 162 -2 8 -6 39 -10 68 -24 187 -135 394 -287
535 -217 202 -502 286 -800 236z m264 -314 c167 -25 337 -143 427 -295 69
-116 82 -172 87 -367 l4 -173 -622 0 -621 0 5 168 c5 185 7 199 42 285 111
273 384 427 678 382z m14 -1394 c183 -93 199 -344 29 -456 l-50 -32 -1 -154
c-1 -169 -7 -188 -61 -214 -45 -21 -89 -9 -129 35 -18 20 -20 37 -21 181 l-1
158 -51 46 c-61 55 -91 114 -96 187 -7 115 67 225 178 264 47 16 158 8 203
-15z"/>
</g>
</svg>
